<svg width="60" height="60" viewBox="0 0 60 60" fill="none" xmlns="http://www.w3.org/2000/svg">
<g clip-path="url(#clip0_1_16)">
<g clip-path="url(#clip1_1_16)">
<g clip-path="url(#clip2_1_16)">
<g clip-path="url(#clip3_1_16)">
<g clip-path="url(#clip4_1_16)">
<g clip-path="url(#clip5_1_16)">
<g clip-path="url(#clip6_1_16)">
<g clip-path="url(#clip7_1_16)">
<g clip-path="url(#clip8_1_16)">
<path d="M2.13147 58.9709C1.44092 58.9709 0.847486 58.3431 0.351158 57.0876C0.135363 56.5383 0.0274658 55.8124 0.0274658 54.91C0.0274658 53.9291 0.135363 52.858 0.351158 51.6966C0.566953 50.5431 0.843171 49.3778 1.17981 48.2007C1.51213 47.0237 1.85093 45.9251 2.1962 44.905C2.54148 43.8848 2.84359 43.0217 3.10254 42.3154C3.55571 40.9422 4.13836 39.3139 4.85048 37.4306C5.5626 35.5473 6.29199 33.6444 7.03864 31.7219C7.78098 29.7993 8.43268 28.073 8.99374 26.5428C10.008 23.7571 10.9359 20.9792 11.7775 18.2092C12.6191 15.447 13.2449 12.7711 13.6549 10.1816C13.806 10.0247 14.0002 9.85594 14.2376 9.67546C14.4749 9.50282 14.6799 9.43612 14.8526 9.47536C15.1763 9.71077 15.3597 10.0835 15.4029 10.5936L15.856 10.5347C16.3092 10.574 16.5358 10.9859 16.5358 11.7706C16.5358 12.006 16.5142 12.2689 16.471 12.5593C16.4279 12.8575 16.3739 13.1635 16.3092 13.4774C16.115 14.2228 15.8841 15.3489 15.6165 16.8555C15.3446 18.37 15.0641 20.0885 14.7749 22.0111C14.4814 23.9336 14.2052 25.8954 13.9462 27.8964C13.6873 29.8974 13.4823 31.7415 13.3312 33.4286C13.1802 34.9195 13.0572 36.4301 12.9622 37.9603C12.8629 39.4905 12.8133 40.9422 12.8133 42.3154C12.8133 44.4341 12.9601 46.2193 13.2535 47.6711C13.5427 49.1228 14.0649 49.8486 14.8202 49.8486C15.295 49.8486 15.8668 49.2993 16.5358 48.2007C17.2263 47.1021 17.9557 45.6112 18.7239 43.7279C19.4878 41.8446 20.269 39.6474 21.0675 37.1363C21.8443 34.6645 22.5672 32.075 23.2362 29.3677C23.8836 26.6605 24.4447 23.9415 24.9194 21.2107C25.3942 18.4877 25.7071 15.9296 25.8581 13.5362C25.8797 13.0654 25.9013 12.5161 25.9229 11.8883C25.9444 11.2606 25.9552 10.6132 25.9552 9.94618C25.9552 9.39689 25.9444 8.86721 25.9229 8.35715C25.9013 7.84709 25.8689 7.37626 25.8257 6.94467C25.6315 5.33602 25.2323 4.53169 24.6281 4.53169C24.2828 4.53169 23.8404 4.8652 23.3009 5.5322C23.1283 5.76761 23.042 5.78723 23.042 5.59105C23.042 5.39487 23.0959 5.13984 23.2038 4.82596C23.4628 4.51207 23.7714 4.15896 24.1296 3.7666C24.4835 3.37425 24.8547 3.17807 25.2431 3.17807C26.3221 3.17807 27.1054 3.82545 27.5931 5.12022C28.0765 6.41499 28.3182 8.00403 28.3182 9.88733C28.3182 12.0453 28.1024 14.5446 27.6708 17.3852C27.2392 20.2337 26.6781 23.2078 25.9876 26.3074C25.3834 29.0146 24.7036 31.7101 23.9483 34.3938C23.193 37.0853 22.3946 39.5886 21.553 41.9034C20.9704 43.5121 20.2971 45.0109 19.5332 46.3998C18.7649 47.7966 17.9708 48.9187 17.1508 49.7662C16.3308 50.6059 15.5647 51.0257 14.8526 51.0257C14.0541 51.0257 13.4499 50.5156 13.0399 49.4955C12.5867 48.4754 12.263 47.11 12.0688 45.3993C11.8746 43.6965 11.7775 41.7465 11.7775 39.5493C11.7775 38.6077 11.7948 37.6346 11.8293 36.6302C11.8595 35.6336 11.907 34.6253 11.9717 33.6052C12.0796 31.3687 12.2415 29.1205 12.4573 26.8606C12.673 24.6085 12.8996 22.5015 13.137 20.5398C12.8133 21.4422 12.3774 22.5604 11.8293 23.8944C11.2769 25.2284 10.705 26.6212 10.1137 28.073C9.51812 29.5247 8.98295 30.8194 8.5082 31.9573C7.60187 34.2329 6.66316 36.6851 5.69208 39.3139C4.721 41.9427 3.76072 44.7873 2.81122 47.8476C2.70332 48.2007 2.535 48.7226 2.30626 49.4131C2.08183 50.0958 1.85093 50.8413 1.61356 51.6495C1.37618 52.4499 1.17765 53.2425 1.01796 54.0272C0.85396 54.8119 0.771958 55.4593 0.771958 55.9693C0.771958 56.4402 0.858276 56.7344 1.03091 56.8521C1.18197 57.0091 1.36539 57.0876 1.58119 57.0876C1.96962 57.0876 2.40121 56.8718 2.87596 56.4402C3.35071 56.0086 3.83193 55.5299 4.31963 55.0042C4.80301 54.4706 5.2497 54.0468 5.65971 53.7329C5.68129 53.6937 5.71366 53.6741 5.75682 53.6741C5.69208 53.6741 5.51945 53.9409 5.23891 54.4745C4.95838 55.0002 4.67785 55.5574 4.39731 56.1459C4.11678 56.7344 3.92256 57.166 3.81467 57.4407C3.31834 58.4608 2.75727 58.9709 2.13147 58.9709ZM3.07017 26.4251C2.8328 26.4251 2.494 26.2485 2.05378 25.8954C1.60924 25.5423 1.21002 25.0126 0.856118 24.3064C0.497899 23.6001 0.318789 22.7566 0.318789 21.7757C0.318789 20.7163 0.43316 19.7354 0.661903 18.833C0.88633 17.9306 1.20355 17.087 1.61356 16.3023C2.39042 14.8898 3.34639 13.6932 4.48147 12.7123C5.61224 11.7314 6.84658 10.9663 8.18451 10.417C9.50086 9.86771 10.7525 9.43612 11.9393 9.12224C12.9104 8.84759 13.8707 8.65926 14.8202 8.55725C15.7697 8.46308 16.4171 8.39638 16.7624 8.35715H16.8595C17.0968 8.35715 17.2155 8.43562 17.2155 8.59256C17.2155 8.86721 17.0213 9.00453 16.6329 9.00453C16.2229 9.00453 15.7913 9.01238 15.3381 9.02807C14.8849 9.05161 14.3994 9.12224 13.8815 9.23995C12.9104 9.51459 11.9134 9.92657 10.8906 10.4759C9.8634 11.0252 8.86427 11.7118 7.89319 12.5357C6.90053 13.3597 6.01577 14.3013 5.23891 15.3607C4.44047 16.4593 3.78877 17.6756 3.28381 19.0096C2.77453 20.3436 2.48753 21.7757 2.42279 23.3058C2.40121 23.4236 2.39042 23.6394 2.39042 23.9532C2.39042 24.3456 2.45084 24.7458 2.57169 25.1538C2.68822 25.5697 2.88675 25.8562 3.16728 26.0131C3.27518 26.17 3.30755 26.2877 3.26439 26.3662C3.22123 26.4447 3.15649 26.4643 3.07017 26.4251ZM50.7501 60.0891C49.7358 60.0891 48.8295 59.5202 48.031 58.3823C47.2326 57.2837 46.4881 55.7261 45.7976 53.7094C45.107 51.6848 44.4316 49.4877 43.7712 47.1178C43.1152 44.7402 42.4571 42.4331 41.7967 40.1967C41.1407 37.9603 40.4566 36.0378 39.7445 34.4291C38.6871 36.8225 37.7096 39.2433 36.8119 41.6916C35.9185 44.1477 35.0726 46.7883 34.2741 49.6132C33.9073 50.8295 33.5404 51.9203 33.1736 52.8854C32.8067 53.8428 32.4614 54.3215 32.1377 54.3215C31.6414 54.3215 31.3933 53.6348 31.3933 52.2616C31.3933 51.987 31.404 51.6848 31.4256 51.3553C31.4472 51.0178 31.4796 50.653 31.5227 50.2606C31.6306 49.2405 31.8399 47.8751 32.1507 46.1644C32.4658 44.4616 32.8283 42.6568 33.2383 40.7499C33.6483 38.8509 34.0626 37.0265 34.4813 35.2766C34.9042 33.5345 35.2776 32.0946 35.6012 30.9568L35.8602 30.074C35.256 29.9955 34.6302 30.1014 33.9828 30.3918C33.3354 30.69 32.6988 31.2118 32.073 31.9573C31.8141 32.2319 31.6846 32.2711 31.6846 32.075C31.6846 31.6041 31.9543 31.1137 32.4938 30.6036C32.7959 30.329 33.1951 30.023 33.6915 29.6855C34.1878 29.356 34.7597 29.1912 35.407 29.1912C35.5149 29.1912 35.6271 29.1912 35.7437 29.1912C35.8645 29.1912 35.9789 29.2108 36.0868 29.25C36.4321 27.9945 36.814 26.4839 37.2327 24.7183C37.6556 22.9527 38.0613 21.1283 38.4497 19.245C38.8382 17.3617 39.1662 15.6353 39.4338 14.0659C39.7057 12.4965 39.8524 11.2606 39.874 10.3582C39.3129 12.9869 38.6655 15.2822 37.9318 17.244C37.1981 19.2057 36.3889 21.0694 35.5041 22.835C35.0726 23.659 34.5482 24.6085 33.931 25.6835C33.3181 26.7664 32.6664 27.8062 31.9759 28.8027C31.2854 29.8072 30.6099 30.6429 29.9496 31.3099C29.2936 31.9769 28.6958 32.3104 28.1563 32.3104C27.25 32.3104 26.5853 31.9769 26.1624 31.3099C25.7437 30.6429 25.5021 29.8385 25.4373 28.8969V28.6026C25.4373 28.0533 25.5021 27.7198 25.6315 27.6021C25.6315 27.6021 25.6531 27.6021 25.6963 27.6021C25.7826 27.6021 25.8257 27.7787 25.8257 28.1318C25.8257 28.5242 25.8689 28.9558 25.9552 29.4266C26.0415 29.8974 26.2465 30.1328 26.5702 30.1328C26.8508 30.1328 27.319 29.9837 27.9751 29.6855C28.6354 29.3952 29.3648 28.838 30.1632 28.0141C31.1775 26.994 32.3643 25.4128 33.7238 23.2705C35.0833 21.1361 36.5831 18.1464 38.2232 14.3013C38.6548 13.2812 39.0151 12.2022 39.3043 11.0644C39.5978 9.92657 39.874 8.91429 40.1329 8.02757C40.3919 7.1487 40.7048 6.55232 41.0717 6.23843C41.2443 6.12073 41.3846 6.06188 41.4925 6.06188C41.9025 6.06188 42.2197 6.51308 42.4441 7.4155C42.6729 8.31791 42.7872 9.35765 42.7872 10.5347C42.7872 10.8094 42.7872 11.0722 42.7872 11.3233C42.7872 11.5823 42.7656 11.8491 42.7225 12.1237C42.6577 12.8692 42.4463 13.9757 42.088 15.4431C41.7341 16.9183 41.2982 18.5584 40.7803 20.3632C40.2624 22.168 39.7445 23.9415 39.2266 25.6835C38.7087 27.4334 38.2555 28.9558 37.8671 30.2505C38.4929 30.9175 39.0648 31.663 39.5827 32.4869C39.8848 31.7807 40.1761 31.0548 40.4566 30.3094C40.7372 29.6031 41.0285 28.8969 41.3306 28.1907C42.2801 25.8758 43.3634 23.3922 44.5805 20.7399C45.8019 18.0954 47.1139 15.5176 48.5166 13.0065C49.8977 10.5347 51.3435 8.25906 52.8541 6.17958C54.3646 4.1001 55.886 2.47183 57.4181 1.29477C57.7418 1.05936 58.0655 0.831792 58.3892 0.612073C58.7129 0.400202 59.0366 0.235411 59.3603 0.117705C59.425 0.0784691 59.4833 0.0470831 59.5351 0.0235418C59.5912 0.00784763 59.63 0 59.6516 0C59.7595 0 59.835 0.0784718 59.8782 0.235414C59.9213 0.510062 59.8998 0.627767 59.8134 0.588532C59.4897 0.43159 59.0582 0.588533 58.5187 1.05936C57.9792 1.53018 57.4073 2.15795 56.8031 2.94266C56.1989 3.72737 55.6486 4.49246 55.1523 5.23793C54.6775 5.94417 54.1423 6.78773 53.5468 7.76861C52.9555 8.7495 52.4117 9.65976 51.9153 10.4994C51.419 11.3469 51.063 11.9668 50.8472 12.3592C50.545 12.8692 50.1178 13.6343 49.5653 14.6544C49.0172 15.6746 48.4022 16.8398 47.7203 18.1503C47.0427 19.4686 46.3414 20.8419 45.6163 22.27C44.8955 23.7061 44.205 25.0911 43.5447 26.4251C42.8886 27.7591 42.3125 28.9558 41.8161 30.0151C41.514 30.6429 41.227 31.2393 40.9551 31.8042C40.6875 32.3771 40.4351 32.9578 40.1977 33.5463C40.8666 34.7626 41.5723 36.281 42.3146 38.1015C43.0613 39.9299 43.8122 41.8328 44.5675 43.8103C45.3228 45.7956 46.0565 47.6632 46.7686 49.4131C47.4808 51.1552 48.1605 52.5755 48.8079 53.6741C49.4337 54.655 50.0487 55.5848 50.6529 56.4637C51.2572 57.3504 51.8182 57.7938 52.3361 57.7938C52.6814 57.7938 52.9943 57.5388 53.2749 57.0287C53.5554 56.5187 53.7604 55.8516 53.8899 55.0277C54.0193 54.2038 54.1165 53.3406 54.1812 52.4382C54.2459 51.5357 54.3322 50.7118 54.4401 49.9663C54.4617 49.8879 54.4941 49.8486 54.5373 49.8486C54.5588 49.8486 54.5696 50.0448 54.5696 50.4372C54.5696 51.1826 54.602 51.8692 54.6667 52.497C54.7315 53.1248 54.7638 53.7329 54.7638 54.3215C54.7638 54.8315 54.7142 55.3534 54.6149 55.887C54.52 56.4127 54.3215 56.9502 54.0193 57.4995C53.5446 58.3627 53.0267 59.0101 52.4656 59.4417C51.9046 59.8733 51.3327 60.0891 50.7501 60.0891ZM32.2025 52.909C32.2672 52.909 32.3643 52.7128 32.4938 52.3205C32.5801 52.0066 32.8283 51.2415 33.2383 50.0252C33.6483 48.8089 34.0907 47.5337 34.5654 46.1997C35.1697 44.4734 35.871 42.4998 36.6694 40.2791C37.4679 38.0662 38.3311 35.7827 39.259 33.4286C39 32.9185 38.7411 32.4673 38.4821 32.075C38.2232 31.6826 37.9426 31.3491 37.6405 31.0745L36.5076 35.0765C36.3997 35.4688 36.2206 36.1241 35.9703 37.0422C35.7243 37.9681 35.4545 38.9686 35.161 40.0437C34.8719 41.1266 34.6021 42.1467 34.3518 43.104C34.1058 44.0692 33.9181 44.7873 33.7886 45.2581C33.6159 45.9251 33.4045 46.7412 33.1541 47.7064C32.9081 48.6637 32.688 49.5465 32.4938 50.3548C32.2996 51.1552 32.1809 51.6731 32.1377 51.9085C32.1162 51.987 32.1054 52.0772 32.1054 52.1792C32.1054 52.2734 32.1054 52.3597 32.1054 52.4382C32.1054 52.752 32.1377 52.909 32.2025 52.909Z" fill="#55E5A4"/>
</g>
</g>
</g>
</g>
</g>
</g>
</g>
</g>
</g>
<defs>
<clipPath id="clip0_1_16">
<rect width="60" height="60" fill="white"/>
</clipPath>
<clipPath id="clip1_1_16">
<rect width="60" height="60" fill="white" transform="translate(-0.036377 0.0445328)"/>
</clipPath>
<clipPath id="clip2_1_16">
<rect width="59.8723" height="60.0891" fill="white" transform="translate(0.0274658)"/>
</clipPath>
<clipPath id="clip3_1_16">
<rect width="59.8723" height="60.0891" fill="white" transform="translate(0.0274658)"/>
</clipPath>
<clipPath id="clip4_1_16">
<rect width="59.8723" height="60.0891" fill="white" transform="translate(0.0274658)"/>
</clipPath>
<clipPath id="clip5_1_16">
<rect width="59.8723" height="60.0891" fill="white" transform="translate(0.0274658)"/>
</clipPath>
<clipPath id="clip6_1_16">
<rect width="59.8723" height="60.0891" fill="white" transform="translate(0.0274658)"/>
</clipPath>
<clipPath id="clip7_1_16">
<rect width="59.8723" height="60.0891" fill="white" transform="translate(0.0274658)"/>
</clipPath>
<clipPath id="clip8_1_16">
<rect width="59.8723" height="60.0891" fill="white" transform="translate(0.0274658)"/>
</clipPath>
</defs>
</svg>
