<svg width="40" height="40" viewBox="0 0 40 40" fill="none" xmlns="http://www.w3.org/2000/svg">
<path d="M30.625 0H9.375C4.19733 0 0 4.19733 0 9.375V30.625C0 35.8027 4.19733 40 9.375 40H30.625C35.8027 40 40 35.8027 40 30.625V9.375C40 4.19733 35.8027 0 30.625 0Z" fill="#242938"/>
<path d="M35.625 28.5838C35.1701 28.7561 34.6679 28.7558 34.2133 28.5829C33.7587 28.41 33.3831 28.0766 33.1577 27.6456C31.7416 25.5257 30.1778 23.5015 28.6748 21.4339L28.0231 20.5651C26.2334 22.9629 24.4438 25.2651 22.8105 27.6543C22.5977 28.0662 22.2425 28.3868 21.811 28.5562C21.3794 28.7256 20.901 28.7324 20.4648 28.5753L27.1805 19.566L20.9339 11.4254C21.3836 11.263 21.8755 11.2608 22.3266 11.4191C22.7777 11.5773 23.1604 11.8864 23.41 12.2942C24.8608 14.4142 26.4681 16.4384 28.0666 18.5843C29.6739 16.4557 31.2637 14.4228 32.7494 12.3203C32.9633 11.915 33.3187 11.6026 33.748 11.4424C34.1774 11.2822 34.6506 11.2854 35.0777 11.4515L32.6537 14.666C31.5678 16.0995 30.4992 17.5417 29.3698 18.9404C29.2788 19.0219 29.2059 19.1216 29.1561 19.2332C29.1062 19.3447 29.0804 19.4655 29.0804 19.5877C29.0804 19.7099 29.1062 19.8307 29.1561 19.9422C29.2059 20.0537 29.2788 20.1535 29.3698 20.2349C31.4462 22.989 33.5052 25.7517 35.625 28.5838ZM4.375 19.4531C4.5575 18.5843 4.67031 17.6373 4.92234 16.7512C6.42531 11.4082 12.5502 9.184 16.7638 12.4942C19.2311 14.4317 19.848 17.177 19.7264 20.2698H5.82594C5.6 25.7953 9.58766 29.1313 14.6873 27.4285C15.5146 27.1326 16.2551 26.6353 16.8421 25.9816C17.4291 25.3278 17.844 24.5382 18.0495 23.684C18.3189 22.8153 18.7533 22.6676 19.5786 22.9195C19.4427 23.9771 19.0688 24.9902 18.4849 25.8826C17.9011 26.7749 17.1225 27.5233 16.2078 28.0714C14.6965 28.8979 12.9625 29.2253 11.2539 29.0069C9.54525 28.7884 7.94944 28.0353 6.69469 26.8551C5.45333 25.4594 4.70275 23.6958 4.5575 21.8335C4.5575 21.5382 4.44453 21.2428 4.38375 20.9648C4.378 20.4609 4.37508 19.957 4.375 19.4531ZM5.84328 19.0795H18.4145C18.3362 15.0745 15.8081 12.2335 12.4373 12.2076C8.68422 12.1554 5.99969 14.9354 5.83453 19.0621L5.84328 19.0795Z" fill="white"/>
</svg>
