<svg width="40" height="40" viewBox="0 0 40 40" fill="none" xmlns="http://www.w3.org/2000/svg">
<path d="M13.31 32.1674C13.1149 31.8079 13.0458 31.3934 13.1138 30.99H4.80875L17.145 9.2712L22.3438 18.5337L23.9788 17.3137L18.845 8.0837C18.6733 7.76814 18.4266 7.49967 18.1266 7.30196C17.8267 7.10425 17.4827 6.98336 17.125 6.94995C16.7648 6.96481 16.4161 7.0811 16.1191 7.28544C15.8221 7.48978 15.5889 7.77386 15.4463 8.10495L2.94625 30.0962C2.75612 30.4045 2.64652 30.7556 2.62752 31.1173C2.60852 31.479 2.68072 31.8397 2.8375 32.1662C3.02763 32.4691 3.29909 32.7125 3.6209 32.8685C3.94271 33.0246 4.30191 33.087 4.6575 33.0487H15.125C14.7701 33.0882 14.4112 33.0271 14.0894 32.8724C13.7676 32.7177 13.4958 32.4756 13.305 32.1737L13.31 32.1674Z" fill="#00C58E"/>
<path d="M37.045 30.14L26.9862 12.2788C26.8227 11.9631 26.5823 11.6937 26.2871 11.4956C25.9919 11.2974 25.6516 11.1768 25.2975 11.145C24.9456 11.1599 24.6052 11.2744 24.3158 11.4751C24.0264 11.6758 23.7998 11.9545 23.6625 12.2788L22.3325 14.4038V18.5288L25.2962 13.44L35.235 31.0288H31.4537C31.5139 31.3849 31.4606 31.7509 31.3012 32.075L31.2687 32.14C31.064 32.4304 30.7908 32.6658 30.4733 32.8254C30.1559 32.985 29.8039 33.0639 29.4487 33.055H35.3662C35.7216 33.0649 36.0739 32.9864 36.3915 32.8267C36.7091 32.6671 36.9822 32.4311 37.1862 32.14C37.346 31.8245 37.4162 31.4713 37.3894 31.1187C37.3625 30.7661 37.2395 30.4276 37.0337 30.14H37.045Z" fill="#108775"/>
<path d="M31.5412 32.125L31.5737 32.06L31.6612 31.8863C31.7679 31.6074 31.7943 31.3043 31.7375 31.0113C31.6817 30.6914 31.5672 30.3846 31.4 30.1063L23.5425 16.4813L22.355 14.4113H22.3337L21.135 16.4713L13.2887 30.0963C13.1358 30.3741 13.0326 30.6766 12.9837 30.99C12.9097 31.3921 12.9749 31.8075 13.1687 32.1675C13.3663 32.4705 13.644 32.7128 13.9711 32.8673C14.2982 33.0218 14.6617 33.0824 15.0212 33.0425H29.6562C30.0222 33.0542 30.3855 32.9758 30.7142 32.8143C31.0428 32.6528 31.3268 32.4131 31.5412 32.1163V32.125ZM22.3325 18.545L29.525 31H15.14L22.3325 18.545Z" fill="#2F495E"/>
</svg>
