<svg width="25" height="40" viewBox="0 0 25 40" fill="none" xmlns="http://www.w3.org/2000/svg">
<g clip-path="url(#clip0_3022_14)">
<path d="M11.3209 19.6202C13.7227 17.0767 12.9898 13.931 10.8145 10.119C8.63921 6.30701 4.26038 4.95085 3.44347 5.81591C2.62656 6.68097 2.44562 12.8661 4.62085 16.6781C6.79616 20.49 8.919 22.1638 11.3209 19.6202Z" fill="url(#paint0_linear_3022_14)"/>
<path d="M13.3976 19.9723C15.1745 23.0862 17.55 21.9476 20.4904 18.8338C23.4307 15.7199 24.65 9.75524 24.0456 8.69621C23.4413 7.63718 18.8486 7.69019 15.9083 10.8041C12.9679 13.9179 11.6208 16.8585 13.3976 19.9723Z" fill="url(#paint1_linear_3022_14)"/>
<path d="M12.426 18.2593C15.3765 18.662 16.5368 15.6323 17.0778 10.7351C17.6188 5.83772 15.3886 0.661644 14.3851 0.524693C13.3817 0.387743 10.0104 4.79937 9.46935 9.69673C8.92837 14.594 9.4756 17.8566 12.426 18.2593Z" fill="url(#paint2_linear_3022_14)"/>
<path d="M11.6831 39.9162C17.869 39.9162 22.8857 37.9189 22.8857 28.861C22.8857 19.803 17.869 12.3701 11.6831 12.3701C5.49706 12.3701 0.484375 19.803 0.484375 28.861C0.484375 37.9189 5.49706 39.9162 11.6831 39.9162Z" fill="url(#paint3_linear_3022_14)"/>
<path d="M17.3411 27.0117C18.2248 27.0117 18.9412 26.6413 18.9412 26.1845C18.9412 25.7276 18.2248 25.3573 17.3411 25.3573C16.4574 25.3573 15.741 25.7276 15.741 26.1845C15.741 26.6413 16.4574 27.0117 17.3411 27.0117Z" fill="#EAADCC"/>
<path d="M5.4916 26.5092C6.36871 26.6289 7.12036 26.3583 7.17045 25.9049C7.22054 25.4515 6.5501 24.9868 5.67299 24.8671C4.79588 24.7474 4.04423 25.018 3.99414 25.4714C3.94405 25.9249 4.61449 26.3895 5.4916 26.5092Z" fill="#EAADCC"/>
<path d="M9.82173 25.4121C9.80565 25.3843 9.78474 25.3604 9.76022 25.3417C9.7357 25.323 9.70808 25.3099 9.67896 25.3032C9.64984 25.2966 9.61981 25.2964 9.59065 25.3028C9.56148 25.3092 9.53375 25.322 9.5091 25.3405C9.48444 25.359 9.46335 25.3827 9.44706 25.4104C9.43078 25.438 9.41962 25.469 9.41425 25.5015C9.40887 25.534 9.40939 25.5674 9.41578 25.5996C9.42216 25.6319 9.43427 25.6624 9.45141 25.6895C9.794 26.2545 10.3209 26.5825 11.0141 26.6706C11.7043 26.7582 12.3205 26.5616 12.849 26.0843C12.8726 26.064 12.8923 26.0387 12.907 26.0099C12.9216 25.9811 12.931 25.9493 12.9344 25.9164C12.9378 25.8835 12.9353 25.8501 12.927 25.8183C12.9186 25.7865 12.9047 25.7569 12.8859 25.7312C12.8671 25.7055 12.8438 25.6843 12.8175 25.6687C12.7912 25.6531 12.7624 25.6436 12.7327 25.6406C12.7031 25.6376 12.6731 25.6412 12.6448 25.6513C12.6164 25.6613 12.5901 25.6776 12.5674 25.6991C12.1326 26.0917 11.6364 26.2501 11.0649 26.1774C10.4962 26.1052 10.0879 25.8511 9.82173 25.4121ZM6.51132 21.5867C6.72136 21.5783 6.93083 21.616 7.12769 21.6979C7.32456 21.7797 7.50493 21.9039 7.65846 22.0635C7.81238 22.2226 7.93649 22.4139 8.02366 22.6265C8.11084 22.839 8.15935 23.0687 8.16641 23.3021C8.17401 23.5356 8.14003 23.7684 8.06642 23.9872C7.99281 24.206 7.88103 24.4064 7.7375 24.5771C7.59437 24.7481 7.42223 24.8861 7.23098 24.983C7.03974 25.0799 6.83315 25.1338 6.62309 25.1417C6.41305 25.1501 6.20358 25.1124 6.00671 25.0305C5.80984 24.9487 5.62947 24.8245 5.47595 24.6649C5.32208 24.5058 5.19801 24.3145 5.11088 24.1019C5.02374 23.8893 4.97526 23.6597 4.96821 23.4262C4.9606 23.1928 4.99456 22.96 5.06815 22.7412C5.14174 22.5224 5.2535 22.322 5.39702 22.1513C5.54013 21.9803 5.71224 21.8423 5.90347 21.7454C6.0947 21.6485 6.30128 21.5946 6.51132 21.5867Z" fill="black"/>
<path d="M6.59523 23.0734C6.59315 22.9971 6.57754 22.9221 6.54929 22.8526C6.52105 22.7831 6.48072 22.7204 6.43064 22.6683C6.38055 22.6161 6.32169 22.5755 6.25743 22.5487C6.19317 22.5219 6.12479 22.5095 6.0562 22.5122C5.98762 22.5149 5.92018 22.5326 5.85777 22.5643C5.79536 22.596 5.73921 22.6411 5.69253 22.6971C5.64586 22.753 5.60958 22.8186 5.58578 22.8902C5.56199 22.9617 5.55115 23.0378 5.55388 23.114C5.55872 23.2675 5.61823 23.4126 5.71931 23.5173C5.8204 23.622 5.95477 23.6779 6.09288 23.6725C6.23098 23.6671 6.36151 23.6009 6.45574 23.4886C6.54997 23.3762 6.60018 23.2269 6.59534 23.0734" fill="white"/>
<path d="M16.2064 22.0382C16.4164 22.0297 16.6259 22.0674 16.8228 22.1492C17.0197 22.231 17.2001 22.3552 17.3536 22.5148C17.5075 22.6739 17.6316 22.8652 17.7187 23.0778C17.8058 23.2904 17.8543 23.52 17.8614 23.7534C17.869 23.9869 17.835 24.2197 17.7614 24.4385C17.6878 24.6573 17.5761 24.8578 17.4326 25.0285C17.2894 25.1995 17.1173 25.3375 16.926 25.4344C16.7348 25.5312 16.5282 25.5851 16.3181 25.593C16.1081 25.6014 15.8987 25.5636 15.7018 25.4818C15.505 25.4 15.3246 25.2758 15.1711 25.1162C15.0172 24.9571 14.8931 24.7658 14.8059 24.5532C14.7187 24.3407 14.6702 24.111 14.6632 23.8776C14.6556 23.6441 14.6895 23.4113 14.7631 23.1925C14.8367 22.9737 14.9485 22.7733 15.0921 22.6026C15.2352 22.4316 15.4073 22.2937 15.5986 22.1968C15.7898 22.0999 15.9963 22.046 16.2064 22.0382Z" fill="black"/>
<path d="M6.49959 21.2147C7.56769 21.1733 8.46379 22.102 8.50108 23.289C8.53837 24.4762 7.70283 25.4721 6.63473 25.5136C5.56664 25.555 4.67076 24.6263 4.63346 23.4391C4.59617 22.2521 5.4316 21.2562 6.49959 21.2147ZM7.83167 23.315C7.80731 22.5388 7.2214 21.9316 6.52297 21.9588C5.82475 21.9858 5.27841 22.637 5.30287 23.4131C5.32723 24.1895 5.91303 24.7966 6.61136 24.7695C7.30969 24.7424 7.85602 24.0913 7.83167 23.315ZM16.1948 21.6661C17.2629 21.6246 18.1589 22.5533 18.1961 23.7404C18.2334 24.9276 17.3979 25.9235 16.3299 25.9649C15.2618 26.0064 14.3658 25.0777 14.3285 23.8906C14.2912 22.7034 15.1268 21.7075 16.1948 21.6661ZM17.5267 23.7664C17.5024 22.9902 16.9166 22.3831 16.2181 22.4101C15.5198 22.4372 14.9735 23.0884 14.9979 23.8646C15.0223 24.6408 15.6081 25.2481 16.3064 25.221C17.0049 25.1938 17.5511 24.5427 17.5267 23.7664Z" fill="white"/>
<path d="M16.2904 23.5248C16.2883 23.4485 16.2728 23.3734 16.2446 23.3039C16.2163 23.2343 16.176 23.1716 16.1259 23.1194C16.0759 23.0672 16.017 23.0265 15.9527 22.9997C15.8884 22.9729 15.82 22.9605 15.7514 22.9631C15.6828 22.9658 15.6153 22.9835 15.5529 23.0153C15.4904 23.047 15.4343 23.0921 15.3876 23.1481C15.3409 23.2041 15.3046 23.2697 15.2808 23.3413C15.2571 23.4129 15.2462 23.489 15.249 23.5653C15.2546 23.7182 15.3144 23.8624 15.4153 23.9665C15.5163 24.0705 15.6502 24.126 15.7878 24.1206C15.9254 24.1153 16.0555 24.0496 16.1497 23.9379C16.2439 23.8263 16.2944 23.6778 16.2904 23.5248Z" fill="white"/>
<path d="M3.49584 29.3849L5.92363 32.1927L7.6656 30.133C7.74035 30.047 7.84258 29.9971 7.95017 29.9942C8.05776 29.9913 8.16205 30.0356 8.24046 30.1175C8.31887 30.1995 8.3651 30.3124 8.36915 30.4319C8.37319 30.5515 8.33471 30.668 8.26205 30.7562L6.49171 32.8498L9.00322 35.7544C9.04047 35.7975 9.06972 35.8483 9.0893 35.904C9.10888 35.9596 9.11841 36.019 9.11734 36.0788C9.11627 36.1385 9.10462 36.1974 9.08306 36.2522C9.06151 36.3069 9.03046 36.3564 8.99169 36.3978C8.95293 36.4392 8.90721 36.4717 8.85714 36.4935C8.80707 36.5152 8.75364 36.5258 8.69989 36.5246C8.64614 36.5234 8.59312 36.5105 8.54387 36.4865C8.49462 36.4626 8.4501 36.4281 8.41285 36.385L5.93026 33.5136L4.76421 34.8924C4.72739 34.9359 4.68321 34.971 4.6342 34.9955C4.5852 35.0201 4.53232 35.0337 4.47859 35.0355C4.42486 35.0374 4.37133 35.0274 4.32105 35.0063C4.27078 34.9851 4.22475 34.9532 4.18558 34.9122C4.14642 34.8713 4.11489 34.8222 4.0928 34.7677C4.07071 34.7133 4.05849 34.6545 4.05683 34.5948C4.05517 34.535 4.06412 34.4755 4.08315 34.4197C4.10218 34.3638 4.13093 34.3126 4.16775 34.2691L5.36219 32.8566L2.90558 30.0154C2.86833 29.9723 2.83908 29.9215 2.8195 29.8659C2.79992 29.8102 2.79039 29.7508 2.79146 29.6911C2.79253 29.6313 2.80418 29.5724 2.82574 29.5177C2.8473 29.4629 2.87834 29.4135 2.91711 29.3721C2.95587 29.3306 3.00159 29.2981 3.05166 29.2764C3.10173 29.2546 3.15517 29.244 3.20892 29.2452C3.26267 29.2464 3.31568 29.2593 3.36493 29.2833C3.41418 29.3073 3.45859 29.3418 3.49584 29.3849ZM19.7997 29.3849C19.8749 29.2979 19.9781 29.2476 20.0867 29.2452C20.1404 29.2441 20.1939 29.2547 20.2439 29.2764C20.294 29.2982 20.3397 29.3307 20.3784 29.3721C20.4172 29.4135 20.4482 29.463 20.4698 29.5177C20.4913 29.5725 20.503 29.6314 20.5041 29.6911C20.5051 29.7509 20.4956 29.8103 20.476 29.8659C20.4564 29.9215 20.4272 29.9724 20.3899 30.0154L17.9332 32.8566L19.1279 34.2691C19.2 34.3544 19.2398 34.4673 19.2389 34.5844C19.2381 34.7014 19.1966 34.8136 19.1233 34.8976L19.1099 34.9122C19.0707 34.9532 19.0247 34.9851 18.9744 35.0062C18.9242 35.0274 18.8706 35.0373 18.8169 35.0355C18.7632 35.0336 18.7103 35.02 18.6613 34.9954C18.6123 34.9709 18.5681 34.9358 18.5313 34.8923L17.3652 33.5134L14.8826 36.385C14.8097 36.4694 14.7102 36.5193 14.605 36.5243C14.4997 36.5293 14.3968 36.489 14.3176 36.4118L14.3038 36.3978C14.265 36.3564 14.234 36.3069 14.2124 36.2521C14.1909 36.1974 14.1793 36.1385 14.1782 36.0787C14.1771 36.019 14.1867 35.9596 14.2063 35.9039C14.2259 35.8483 14.2551 35.7975 14.2924 35.7544L16.8039 32.8498L15.0334 30.7562C14.9613 30.6709 14.9216 30.558 14.9224 30.441C14.9233 30.324 14.9647 30.2118 15.038 30.1278L15.0514 30.1132C15.1305 30.0306 15.2359 29.9863 15.3443 29.99C15.4528 29.9937 15.5555 30.0451 15.6299 30.133L17.3718 32.1927L19.7997 29.3849Z" fill="#ECB732"/>
<path d="M14.2072 15.316C14.2839 15.4013 14.327 15.517 14.327 15.6377C14.327 15.7583 14.2839 15.874 14.2072 15.9593L12.3013 18.0778L13.4629 19.3692C13.5373 19.452 13.5803 19.5635 13.5827 19.6805C13.5851 19.7975 13.5469 19.9111 13.4759 19.9976L13.4629 20.0127C13.3861 20.098 13.282 20.1459 13.1734 20.1459C13.0649 20.1459 12.9608 20.098 12.884 20.0127L11.7222 18.7213L10.5604 20.0127C10.5224 20.0551 10.4773 20.0888 10.4276 20.1118C10.3779 20.1347 10.3246 20.1466 10.2707 20.1467C10.2169 20.1467 10.1636 20.135 10.1138 20.1121C10.0641 20.0893 10.0189 20.0557 9.98082 20.0134C9.94275 19.9711 9.91257 19.9208 9.892 19.8655C9.87144 19.8102 9.86088 19.751 9.86095 19.6911C9.86102 19.6313 9.8717 19.5721 9.89239 19.5168C9.91309 19.4616 9.94338 19.4114 9.98154 19.3692L11.1432 18.0778L9.23732 15.9594C9.16283 15.8766 9.11991 15.7652 9.11748 15.6481C9.11505 15.5311 9.1533 15.4175 9.22428 15.331L9.23732 15.3159C9.31409 15.2306 9.4182 15.1827 9.52675 15.1827C9.6353 15.1827 9.7394 15.2306 9.81617 15.3159L11.7222 17.4343L13.6282 15.3159C13.6662 15.2736 13.7114 15.2401 13.761 15.2173C13.8107 15.1944 13.8639 15.1826 13.9177 15.1826C13.9715 15.1826 14.0247 15.1944 14.0744 15.2173C14.124 15.2401 14.1692 15.2738 14.2072 15.316Z" fill="#FFC73B"/>
</g>
<defs>
<linearGradient id="paint0_linear_3022_14" x1="376.604" y1="-318.24" x2="527.611" y2="341.06" gradientUnits="userSpaceOnUse">
<stop stop-color="#52CE63"/>
<stop offset="1" stop-color="#51A256"/>
</linearGradient>
<linearGradient id="paint1_linear_3022_14" x1="316.816" y1="425.203" x2="-286.78" y2="536.957" gradientUnits="userSpaceOnUse">
<stop stop-color="#52CE63"/>
<stop offset="1" stop-color="#51A256"/>
</linearGradient>
<linearGradient id="paint2_linear_3022_14" x1="390.96" y1="51.9178" x2="249.114" y2="1091.27" gradientUnits="userSpaceOnUse">
<stop stop-color="#8AE99C"/>
<stop offset="1" stop-color="#52CE63"/>
</linearGradient>
<linearGradient id="paint3_linear_3022_14" x1="1151.42" y1="493.683" x2="922.115" y2="2759.17" gradientUnits="userSpaceOnUse">
<stop stop-color="#FFE56C"/>
<stop offset="1" stop-color="#FFC63A"/>
</linearGradient>
<clipPath id="clip0_3022_14">
<rect width="24" height="40" fill="white" transform="translate(0.5)"/>
</clipPath>
</defs>
</svg>
