<svg width="40" height="40" viewBox="0 0 40 40" fill="none" xmlns="http://www.w3.org/2000/svg">
<g clip-path="url(#clip0_3022_7)">
<path d="M38.0938 0.0351562H1.9062C0.872886 0.0351562 0.0352173 0.872825 0.0352173 1.90614V38.0937C0.0352173 39.1271 0.872886 39.9647 1.9062 39.9647H38.0938C39.1271 39.9647 39.9648 39.1271 39.9648 38.0937V1.90614C39.9648 0.872825 39.1271 0.0351562 38.0938 0.0351562Z" fill="#3178C6"/>
<path fill-rule="evenodd" clip-rule="evenodd" d="M23.2015 31.0648V35.44C23.9964 35.8323 24.8436 36.1085 25.717 36.2599C26.7264 36.4463 27.751 36.5379 28.7774 36.5337C29.7777 36.5385 30.7758 36.4376 31.755 36.2328C32.6341 36.0552 33.4729 35.7168 34.2292 35.2346C34.9313 34.7814 35.5099 34.1611 35.9133 33.4292C36.6358 31.9138 36.7311 30.1745 36.1786 28.5892C35.9454 27.9964 35.598 27.4551 35.1561 26.9963C34.6818 26.5084 34.143 26.0876 33.5546 25.7456C32.8773 25.3489 32.1736 24.9992 31.4484 24.6989C30.8779 24.4622 30.3646 24.2321 29.9082 24.0087C29.5029 23.8146 29.115 23.5861 28.7488 23.3256C28.462 23.1246 28.2129 22.8745 28.013 22.5869C27.8402 22.3258 27.7503 22.0187 27.7549 21.7056C27.7511 21.4175 27.8314 21.1345 27.9859 20.8913C28.1537 20.6368 28.3777 20.4241 28.6405 20.2696C28.9617 20.0804 29.3113 19.9442 29.6758 19.866C30.1233 19.7666 30.5807 19.7187 31.0391 19.7234C31.4246 19.7247 31.8096 19.7524 32.1913 19.8061C32.6036 19.8618 33.0115 19.9462 33.412 20.0585C33.8195 20.1714 34.218 20.3144 34.6042 20.4863C34.979 20.6534 35.3376 20.8549 35.6752 21.0881V17.0053C34.9723 16.7394 34.2434 16.5482 33.5005 16.4349C32.6033 16.3044 31.6975 16.2429 30.7909 16.2509C29.8 16.2456 28.8119 16.3581 27.8476 16.5861C26.9759 16.7853 26.147 17.1393 25.4005 17.6314C24.7069 18.0934 24.1343 18.7149 23.7305 19.4439C23.3027 20.2534 23.091 21.1597 23.1159 22.075C23.0843 23.2854 23.483 24.4678 24.2411 25.4119C25.1711 26.4588 26.3439 27.2614 27.6565 27.7492C28.2554 27.9964 28.814 28.2384 29.3321 28.4751C29.7996 28.6831 30.2489 28.9297 30.6754 29.2124C31.0195 29.4362 31.3216 29.7185 31.5681 30.0466C31.7849 30.3442 31.9 30.7038 31.8961 31.072C31.8981 31.3478 31.8273 31.6194 31.6908 31.8591C31.5391 32.1168 31.326 32.3329 31.0705 32.488C30.7507 32.683 30.4009 32.8237 30.0351 32.9044C29.5588 33.0109 29.0715 33.0612 28.5834 33.0542C27.6255 33.0524 26.6753 32.8835 25.7755 32.555C24.8355 32.2158 23.9637 31.7111 23.2015 31.0648ZM15.8516 20.1726H21.5558V16.569H5.651V20.1726H11.3296V36.2214H15.8516V20.1726Z" fill="white"/>
</g>
<defs>
<clipPath id="clip0_3022_7">
<rect width="40" height="40" fill="white"/>
</clipPath>
</defs>
</svg>
